<svg width="415" height="416" viewBox="0 0 415 416" fill="none" xmlns="http://www.w3.org/2000/svg">
<path d="M176.992 329.836C203.563 337.568 231.648 336.574 257.698 326.98C283.749 317.385 306.595 299.622 323.351 275.933C340.106 252.245 350.019 223.694 351.836 193.891C353.653 164.087 347.293 134.367 333.559 108.487C331.257 104.146 330.637 98.9896 331.836 94.1522C333.034 89.3148 335.954 85.1927 339.952 82.6926C343.949 80.1925 348.698 79.5192 353.153 80.8209C357.608 82.1225 361.404 85.2925 363.707 89.6334C375.119 111.087 382.52 134.775 385.486 159.34C388.452 183.904 386.925 208.863 380.992 232.786C356.132 333.53 260.77 393.312 167.99 366.318C75.209 339.324 20.1522 235.778 45.0127 135.034C50.8906 111.095 61.061 88.6511 74.9413 68.9877C88.8216 49.3243 106.139 32.8282 125.901 20.4446C129.894 17.9353 134.641 17.2511 139.099 18.5425C143.556 19.8339 147.359 22.9951 149.67 27.3307C151.981 31.6664 152.611 36.8212 151.421 41.6614C150.232 46.5015 147.321 50.6303 143.328 53.1396C119.517 68.0963 100.324 90.3814 88.1731 117.179C76.0227 143.976 71.4606 174.083 75.0633 203.695C78.666 233.306 90.2719 261.094 108.414 283.546C126.557 305.998 150.421 322.107 176.992 329.836Z" fill="url(#paint0_linear_645_2526)" fill-opacity="0.5"/>
<path d="M203.999 220.394C212.909 222.986 222.404 221.629 230.393 216.62C238.382 211.612 244.212 203.363 246.599 193.687C248.987 184.012 247.737 173.703 243.124 165.028C238.512 156.353 230.915 150.023 222.004 147.43C213.093 144.838 203.599 146.195 195.61 151.204C187.621 156.212 181.791 164.461 179.403 174.137C177.016 183.812 178.266 194.121 182.878 202.796C187.491 211.471 195.088 217.801 203.999 220.394Z" fill="url(#paint1_linear_645_2526)" fill-opacity="0.5"/>
<path d="M280.198 203.465C277.239 215.465 271.6 226.488 263.781 235.557C255.961 244.626 246.202 251.46 235.368 255.455C224.534 259.45 212.96 260.481 201.672 258.459C190.383 256.436 179.728 251.421 170.651 243.859C161.574 236.296 154.355 226.419 149.633 215.103C144.911 203.787 142.833 191.382 143.582 178.985C144.331 166.588 147.884 154.584 153.927 144.034C159.969 133.485 168.315 124.717 178.225 118.507C180.204 117.266 181.938 115.615 183.329 113.646C184.72 111.678 185.741 109.431 186.332 107.034C186.924 104.637 187.075 102.138 186.776 99.6775C186.478 97.2175 185.736 94.8453 184.594 92.6964C182.286 88.3566 178.486 85.1899 174.028 83.8929C171.82 83.2507 169.518 83.0868 167.253 83.4107C164.987 83.7346 162.802 84.5398 160.823 85.7805C142.949 96.9849 128.537 113.693 119.408 133.791C110.279 153.89 106.845 176.477 109.538 198.695C112.232 220.914 120.933 241.766 134.54 258.614C148.148 275.463 166.052 287.552 185.987 293.352C205.923 299.153 226.995 298.403 246.538 291.2C266.081 283.996 283.218 270.661 295.782 252.882C308.346 235.103 315.772 213.678 317.121 191.315C318.471 168.953 313.682 146.659 303.363 127.252C302.22 125.104 300.698 123.222 298.886 121.713C297.073 120.203 295.004 119.097 292.797 118.455C290.591 117.814 288.289 117.651 286.024 117.976C283.76 118.301 281.576 119.106 279.598 120.347C277.62 121.588 275.887 123.24 274.497 125.209C273.107 127.177 272.088 129.423 271.497 131.819C270.907 134.216 270.757 136.715 271.056 139.174C271.355 141.633 272.097 144.004 273.24 146.151C277.822 154.734 280.797 164.217 281.991 174.053C283.185 183.889 282.576 193.885 280.198 203.465Z" fill="url(#paint2_linear_645_2526)" fill-opacity="0.5"/>
<defs>
<linearGradient id="paint0_linear_645_2526" x1="167.99" y1="366.318" x2="259.022" y2="53.4338" gradientUnits="userSpaceOnUse">
<stop stop-color="white"/>
<stop offset="1" stop-color="white" stop-opacity="0"/>
</linearGradient>
<linearGradient id="paint1_linear_645_2526" x1="203.999" y1="220.394" x2="224.976" y2="148.295" gradientUnits="userSpaceOnUse">
<stop stop-color="white"/>
<stop offset="1" stop-color="white" stop-opacity="0"/>
</linearGradient>
<linearGradient id="paint2_linear_645_2526" x1="185.987" y1="293.352" x2="241.239" y2="103.448" gradientUnits="userSpaceOnUse">
<stop stop-color="white"/>
<stop offset="1" stop-color="white" stop-opacity="0"/>
</linearGradient>
</defs>
</svg>
