<svg width="442" height="456" viewBox="0 0 442 456" fill="none" xmlns="http://www.w3.org/2000/svg">
<path d="M269.311 113.456C244.278 101.073 216.427 97.0263 189.276 101.826C162.125 106.626 136.894 120.057 116.771 140.422C96.6485 160.787 82.5367 187.172 76.2194 216.242C69.9021 245.313 71.6629 275.765 81.2792 303.749C82.8911 308.443 82.7198 313.64 80.803 318.196C78.8862 322.753 75.3808 326.296 71.0581 328.046C66.7354 329.796 61.9494 329.61 57.753 327.529C53.5566 325.448 50.2935 321.642 48.6816 316.948C40.6831 293.745 36.9798 269.056 37.784 244.297C38.5881 219.537 43.8839 195.193 53.3679 172.66C93.1841 77.7448 196.317 35.8513 283.73 79.0849C371.142 122.318 409.725 234.303 369.908 329.218C360.476 351.777 347.037 372.094 330.361 389.003C313.686 405.913 294.101 419.083 272.729 427.76C268.41 429.52 263.623 429.345 259.423 427.273C255.222 425.202 251.952 421.403 250.331 416.713C248.71 412.023 248.871 406.826 250.779 402.265C252.687 397.704 256.185 394.153 260.504 392.393C286.26 381.903 308.575 363.359 324.627 339.103C340.68 314.847 349.751 285.969 350.694 256.118C351.636 226.266 344.408 196.781 329.923 171.389C315.438 145.996 294.345 125.836 269.311 113.456Z" fill="url(#paint0_linear_645_2522)" fill-opacity="0.5"/>
<path d="M226.058 216.566C217.663 212.414 208.093 212.053 199.453 215.563C190.812 219.073 183.81 226.166 179.986 235.281C176.162 244.397 175.83 254.789 179.062 264.171C182.294 273.553 188.826 281.156 197.222 285.308C205.617 289.46 215.187 289.821 223.827 286.311C232.468 282.802 239.47 275.709 243.294 266.593C247.118 257.477 247.45 247.086 244.218 237.704C240.986 228.322 234.454 220.719 226.058 216.566Z" fill="url(#paint1_linear_645_2522)" fill-opacity="0.5"/>
<path d="M148.33 219.623C153.071 208.316 160.306 198.453 169.396 190.909C178.486 183.364 189.149 178.37 200.441 176.369C211.733 174.368 223.305 175.422 234.132 179.438C244.959 183.454 254.707 190.308 262.512 199.392C270.316 208.476 275.937 219.51 278.876 231.516C281.815 243.522 281.982 256.131 279.361 268.223C276.74 280.316 271.413 291.521 263.851 300.844C256.289 310.167 246.726 317.321 236.01 321.672C233.869 322.542 231.908 323.86 230.237 325.553C228.566 327.245 227.218 329.279 226.271 331.537C225.324 333.795 224.795 336.234 224.716 338.713C224.637 341.193 225.008 343.666 225.809 345.99C227.426 350.683 230.694 354.487 234.893 356.564C236.973 357.593 239.219 358.166 241.503 358.253C243.786 358.339 246.063 357.936 248.204 357.066C267.534 349.215 284.287 335.315 296.342 317.126C308.397 298.936 315.214 277.274 315.931 254.877C316.648 232.481 311.232 210.356 300.368 191.302C289.505 172.248 273.682 157.119 254.9 147.83C236.118 138.54 215.221 135.507 194.851 139.114C174.481 142.72 155.554 152.805 140.463 168.092C125.372 183.379 114.794 203.182 110.068 224.996C105.342 246.811 106.679 269.657 113.912 290.646C114.713 292.969 115.927 295.098 117.486 296.911C119.045 298.724 120.918 300.186 122.997 301.214C125.076 302.241 127.321 302.814 129.604 302.899C131.887 302.984 134.163 302.58 136.302 301.71C138.442 300.84 140.402 299.521 142.072 297.829C143.742 296.136 145.088 294.103 146.035 291.845C146.981 289.588 147.508 287.15 147.587 284.671C147.665 282.192 147.293 279.72 146.492 277.398C143.275 268.112 141.781 258.226 142.097 248.311C142.412 238.395 144.531 228.646 148.33 219.623Z" fill="url(#paint2_linear_645_2522)" fill-opacity="0.5"/>
<defs>
<linearGradient id="paint0_linear_645_2522" x1="283.73" y1="79.0849" x2="140.588" y2="368.499" gradientUnits="userSpaceOnUse">
<stop stop-color="white"/>
<stop offset="1" stop-color="white" stop-opacity="0"/>
</linearGradient>
<linearGradient id="paint1_linear_645_2522" x1="226.058" y1="216.566" x2="193.074" y2="283.257" gradientUnits="userSpaceOnUse">
<stop stop-color="white"/>
<stop offset="1" stop-color="white" stop-opacity="0"/>
</linearGradient>
<linearGradient id="paint2_linear_645_2522" x1="254.9" y1="147.83" x2="168.02" y2="323.489" gradientUnits="userSpaceOnUse">
<stop stop-color="white"/>
<stop offset="1" stop-color="white" stop-opacity="0"/>
</linearGradient>
</defs>
</svg>
