<svg width="54" height="55" viewBox="0 0 54 55" fill="none" xmlns="http://www.w3.org/2000/svg">
<rect y="0.5" width="54" height="54" rx="10" fill="#C7F8ED"/>
<path d="M33.2525 28.75C33.9429 28.75 34.5025 29.3096 34.5025 30C34.5025 30.641 34.02 31.1694 33.3983 31.2416L33.2525 31.25H18.7713L22.8864 35.3661C23.337 35.8167 23.3717 36.5258 22.9904 37.0161L22.8864 37.1339C22.4358 37.5845 21.7267 37.6192 21.2364 37.2379L21.1186 37.1339L14.8686 30.8839C14.1154 30.1307 14.5929 28.866 15.6105 28.7575L15.7525 28.75H33.2525ZM32.7661 17.7621L32.8839 17.8661L39.1339 24.1161C39.8871 24.8693 39.4096 26.134 38.392 26.2425L38.25 26.25H20.75C20.0596 26.25 19.5 25.6904 19.5 25C19.5 24.359 19.9826 23.8306 20.6042 23.7584L20.75 23.75H35.2312L31.1161 19.6339C30.6655 19.1833 30.6308 18.4742 31.0121 17.9839L31.1161 17.8661C31.5667 17.4155 32.2758 17.3808 32.7661 17.7621Z" fill="black"/>
</svg>
