<svg width="70" height="71" viewBox="0 0 70 71" fill="none" xmlns="http://www.w3.org/2000/svg">
<rect y="0.805664" width="70" height="70" rx="10" fill="#A9D6D3"/>
<g clip-path="url(#clip0_645_2629)">
<path d="M25 55.375C30.1777 55.375 34.375 51.1777 34.375 46C34.375 40.8223 30.1777 36.625 25 36.625C19.8223 36.625 15.625 40.8223 15.625 46C15.625 51.1777 19.8223 55.375 25 55.375Z" fill="#44C8F5"/>
<path d="M45 35.375C50.1777 35.375 54.375 31.1777 54.375 26C54.375 20.8223 50.1777 16.625 45 16.625C39.8223 16.625 35.625 20.8223 35.625 26C35.625 31.1777 39.8223 35.375 45 35.375Z" fill="#67C18C"/>
<path d="M45 16C39.4863 16 35 20.4863 35 26C35 31.5138 39.4863 36 45 36C50.5138 36 55 31.5138 55 26C55 20.4863 50.5138 16 45 16ZM45 34.75C40.175 34.75 36.25 30.825 36.25 26C36.25 21.175 40.175 17.25 45 17.25C49.825 17.25 53.75 21.175 53.75 26C53.75 30.825 49.825 34.75 45 34.75Z" fill="#0C3847"/>
<path d="M25 36C19.4863 36 15 40.4863 15 46C15 51.5138 19.4863 56 25 56C30.5138 56 35 51.5138 35 46C35 40.4863 30.5138 36 25 36ZM25 54.75C20.175 54.75 16.25 50.825 16.25 46C16.25 41.175 20.175 37.25 25 37.25C29.825 37.25 33.75 41.175 33.75 46C33.75 50.825 29.825 54.75 25 54.75Z" fill="#0C3847"/>
<path d="M47.5 27.25C47.5 26.2162 46.6588 25.375 45.625 25.375H44.375C44.0306 25.375 43.75 25.095 43.75 24.75C43.75 24.405 44.0306 24.125 44.375 24.125H45.625H46.875V22.875H45.625V21.625H44.375V22.875C43.3412 22.875 42.5 23.7162 42.5 24.75C42.5 25.7838 43.3412 26.625 44.375 26.625H45.625C45.9694 26.625 46.25 26.905 46.25 27.25C46.25 27.595 45.9694 27.875 45.625 27.875H44.375H43.125V29.125H44.375V30.375H45.625V29.125C46.6588 29.125 47.5 28.2838 47.5 27.25Z" fill="white"/>
<path d="M27.5 44.75V44.125C27.5 42.7462 26.3787 41.625 25 41.625C23.6212 41.625 22.5 42.7462 22.5 44.125H21.25V45.375H22.5V46H21.25V47.25H22.5V47.875C22.5 49.2537 23.6212 50.375 25 50.375C26.3787 50.375 27.5 49.2537 27.5 47.875V47.25H26.25V47.875C26.25 48.5644 25.6894 49.125 25 49.125C24.3106 49.125 23.75 48.5644 23.75 47.875V47.25H25.625V46H23.75V45.375H25V44.125H23.75C23.75 43.4356 24.3106 42.875 25 42.875C25.6894 42.875 26.25 43.4356 26.25 44.125V44.75H27.5Z" fill="white"/>
<path d="M47.5 39.75C47.5 44.575 43.575 48.5 38.75 48.5H38.125V49.75H38.75C44.0538 49.75 48.4069 45.5988 48.7306 40.375H51.25V39.125H47.5V39.75Z" fill="#0C3847"/>
<path d="M38.125 42.875V46.625H38.75C42.5406 46.625 45.625 43.5406 45.625 39.75V39.125H44.375V39.75C44.375 42.6406 42.1838 45.0281 39.375 45.34V42.875H38.125Z" fill="#0C3847"/>
<path d="M22.5 32.25C22.5 27.425 26.425 23.5 31.25 23.5H31.875V22.25H31.25C25.9462 22.25 21.5931 26.4012 21.2694 31.625H18.75V32.875H22.5V32.25Z" fill="#0C3847"/>
<path d="M31.875 29.125V25.375H31.25C27.4594 25.375 24.375 28.4594 24.375 32.25V32.875H25.625V32.25C25.625 29.3594 27.8163 26.9719 30.625 26.66V29.125H31.875Z" fill="#0C3847"/>
<path d="M45.625 19.125H44.375V20.375H45.625V19.125Z" fill="#0C3847"/>
<path d="M45.625 31.625H44.375V32.875H45.625V31.625Z" fill="#0C3847"/>
<path d="M41.7912 19.8857L42.2695 21.0405L43.4244 20.5622L42.946 19.4073L41.7912 19.8857Z" fill="#0C3847"/>
<path d="M48.2069 32.1129L47.7285 30.958L46.5736 31.4364L47.052 32.5913L48.2069 32.1129Z" fill="#0C3847"/>
<path d="M41.4669 21.5782L40.583 20.6943L39.6991 21.5782L40.583 22.4621L41.4669 21.5782Z" fill="#0C3847"/>
<path d="M50.3038 30.4229L49.4199 29.5391L48.536 30.4229L49.4199 31.3068L50.3038 30.4229Z" fill="#0C3847"/>
<path d="M38.4086 23.9464L39.5635 24.4248L40.0419 23.2699L38.887 22.7916L38.4086 23.9464Z" fill="#0C3847"/>
<path d="M51.5885 28.0536L50.4336 27.5752L49.9552 28.7301L51.1101 29.2084L51.5885 28.0536Z" fill="#0C3847"/>
<path d="M39.375 25.375H38.125V26.625H39.375V25.375Z" fill="#0C3847"/>
<path d="M51.875 25.375H50.625V26.625H51.875V25.375Z" fill="#0C3847"/>
<path d="M38.8871 29.2088L40.042 28.7305L39.5636 27.5756L38.4087 28.054L38.8871 29.2088Z" fill="#0C3847"/>
<path d="M51.1129 22.7916L49.958 23.27L50.4364 24.4249L51.5913 23.9465L51.1129 22.7916Z" fill="#0C3847"/>
<path d="M41.4659 30.4224L40.582 29.5386L39.6982 30.4224L40.582 31.3063L41.4659 30.4224Z" fill="#0C3847"/>
<path d="M48.5351 21.5776L49.4189 22.4614L50.3028 21.5776L49.4189 20.6937L48.5351 21.5776Z" fill="#0C3847"/>
<path d="M43.4234 31.4354L42.2686 30.957L41.7902 32.1119L42.9451 32.5903L43.4234 31.4354Z" fill="#0C3847"/>
<path d="M48.2076 19.8876L47.0527 19.4092L46.5744 20.5641L47.7292 21.0424L48.2076 19.8876Z" fill="#0C3847"/>
<path d="M25.625 39.125H24.375V40.375H25.625V39.125Z" fill="#0C3847"/>
<path d="M25.625 51.625H24.375V52.875H25.625V51.625Z" fill="#0C3847"/>
<path d="M21.7951 39.8871L22.2734 41.042L23.4283 40.5636L22.9499 39.4087L21.7951 39.8871Z" fill="#0C3847"/>
<path d="M28.2088 52.1114L27.7305 50.9565L26.5756 51.4349L27.054 52.5898L28.2088 52.1114Z" fill="#0C3847"/>
<path d="M19.6962 41.5805L20.5801 42.4644L21.464 41.5805L20.5801 40.6966L19.6962 41.5805Z" fill="#0C3847"/>
<path d="M30.3038 50.4229L29.4199 49.5391L28.536 50.4229L29.4199 51.3068L30.3038 50.4229Z" fill="#0C3847"/>
<path d="M18.4096 43.9445L19.5645 44.4229L20.0428 43.268L18.888 42.7896L18.4096 43.9445Z" fill="#0C3847"/>
<path d="M31.5914 48.055L30.4365 47.5767L29.9581 48.7315L31.113 49.2099L31.5914 48.055Z" fill="#0C3847"/>
<path d="M19.375 45.375H18.125V46.625H19.375V45.375Z" fill="#0C3847"/>
<path d="M31.875 45.375H30.625V46.625H31.875V45.375Z" fill="#0C3847"/>
<path d="M18.8871 49.2088L20.042 48.7305L19.5636 47.5756L18.4087 48.054L18.8871 49.2088Z" fill="#0C3847"/>
<path d="M31.5887 43.9493L31.1104 42.7944L29.9555 43.2728L30.4339 44.4277L31.5887 43.9493Z" fill="#0C3847"/>
<path d="M21.464 50.4224L20.5801 49.5386L19.6962 50.4224L20.5801 51.3063L21.464 50.4224Z" fill="#0C3847"/>
<path d="M28.5351 41.58L29.4189 42.4639L30.3028 41.58L29.4189 40.6961L28.5351 41.58Z" fill="#0C3847"/>
<path d="M23.4254 51.4359L22.2705 50.9575L21.7921 52.1124L22.947 52.5908L23.4254 51.4359Z" fill="#0C3847"/>
<path d="M28.2086 39.888L27.0537 39.4097L26.5753 40.5645L27.7302 41.0429L28.2086 39.888Z" fill="#0C3847"/>
</g>
<defs>
<clipPath id="clip0_645_2629">
<rect width="40" height="40" fill="white" transform="translate(15 16)"/>
</clipPath>
</defs>
</svg>
