<svg width="19" height="19" viewBox="0 0 19 19" fill="none" xmlns="http://www.w3.org/2000/svg">
<g clip-path="url(#clip0_645_2431)">
<g clip-path="url(#clip1_645_2431)">
<path d="M9.14828 17.0025C12.0738 17.0025 14.4772 14.6843 14.4772 11.7086C14.4772 10.9782 14.4393 10.1947 14.0348 8.97736C13.6303 7.76094 13.5488 7.60368 13.1206 6.85147C12.9378 8.3862 11.9591 9.02473 11.71 9.2161C11.71 9.01715 11.1179 6.81926 10.2207 5.50431C9.33965 4.21304 8.14028 3.3661 7.43734 2.79199C7.43734 3.88241 7.13134 5.50431 6.69176 6.33041C6.25218 7.15652 6.1707 7.18683 5.62123 7.80168C5.07176 8.41652 4.8207 8.60599 4.36123 9.35157C3.9027 10.0981 3.81934 11.0919 3.81934 11.8223C3.81934 14.797 6.22281 17.0025 9.14828 17.0025Z" fill="#02282B" stroke="white" stroke-width="1.42105" stroke-linejoin="round"/>
</g>
</g>
<defs>
<clipPath id="clip0_645_2431">
<rect width="18" height="18" fill="white" transform="translate(0.148438 0.897461)"/>
</clipPath>
<clipPath id="clip1_645_2431">
<rect width="18" height="18" fill="white" transform="translate(0.148438 0.897461)"/>
</clipPath>
</defs>
</svg>
