<svg width="21" height="20" viewBox="0 0 21 20" fill="none" xmlns="http://www.w3.org/2000/svg">
<path d="M10.9149 18.9582C5.97321 18.9582 1.95654 14.9415 1.95654 9.99984C1.95654 5.05817 5.97321 1.0415 10.9149 1.0415C15.8565 1.0415 19.8732 5.05817 19.8732 9.99984C19.8732 14.9415 15.8565 18.9582 10.9149 18.9582ZM10.9149 2.2915C6.66488 2.2915 3.20654 5.74984 3.20654 9.99984C3.20654 14.2498 6.66488 17.7082 10.9149 17.7082C15.1649 17.7082 18.6232 14.2498 18.6232 9.99984C18.6232 5.74984 15.1649 2.2915 10.9149 2.2915Z" fill="white"/>
<path d="M8.41523 18.125H7.5819C7.24023 18.125 6.9569 17.8417 6.9569 17.5C6.9569 17.1583 7.22357 16.8833 7.56523 16.875C6.2569 12.4083 6.2569 7.59167 7.56523 3.125C7.22357 3.11667 6.9569 2.84167 6.9569 2.5C6.9569 2.15833 7.24023 1.875 7.5819 1.875H8.41523C8.61523 1.875 8.8069 1.975 8.92357 2.13333C9.04023 2.3 9.07357 2.50833 9.0069 2.7C7.44023 7.40833 7.44023 12.5917 9.0069 17.3083C9.07357 17.5 9.04023 17.7083 8.92357 17.875C8.8069 18.025 8.61523 18.125 8.41523 18.125Z" fill="white"/>
<path d="M13.415 18.1252C13.3484 18.1252 13.2817 18.1169 13.215 18.0919C12.89 17.9836 12.7067 17.6252 12.8234 17.3002C14.39 12.5919 14.39 7.40856 12.8234 2.6919C12.715 2.3669 12.89 2.00856 13.215 1.90023C13.5484 1.7919 13.8984 1.9669 14.0067 2.2919C15.665 7.25856 15.665 12.7252 14.0067 17.6836C13.9234 17.9586 13.6734 18.1252 13.415 18.1252Z" fill="white"/>
<path d="M10.915 14.3335C8.59004 14.3335 6.27337 14.0085 4.04004 13.3502C4.03171 13.6835 3.75671 13.9585 3.41504 13.9585C3.07337 13.9585 2.79004 13.6752 2.79004 13.3335V12.5002C2.79004 12.3002 2.89004 12.1085 3.04837 11.9918C3.21504 11.8752 3.42337 11.8418 3.61504 11.9085C8.32337 13.4752 13.515 13.4752 18.2234 11.9085C18.415 11.8418 18.6234 11.8752 18.79 11.9918C18.9567 12.1085 19.0484 12.3002 19.0484 12.5002V13.3335C19.0484 13.6752 18.765 13.9585 18.4234 13.9585C18.0817 13.9585 17.8067 13.6918 17.7984 13.3502C15.5567 14.0085 13.24 14.3335 10.915 14.3335Z" fill="white"/>
<path d="M18.4152 8.12497C18.3485 8.12497 18.2819 8.11663 18.2152 8.09163C13.5069 6.52497 8.31518 6.52497 3.60685 8.09163C3.27352 8.19997 2.92352 8.02497 2.81518 7.69997C2.71518 7.36663 2.89018 7.01663 3.21518 6.9083C8.18185 5.24997 13.6485 5.24997 18.6069 6.9083C18.9319 7.01663 19.1152 7.37497 18.9985 7.69997C18.9235 7.9583 18.6735 8.12497 18.4152 8.12497Z" fill="white"/>
</svg>
