<svg width="167" height="35" viewBox="0 0 167 35" fill="none" xmlns="http://www.w3.org/2000/svg">
<rect x="0.0102539" y="0.5" width="166" height="34" rx="17" fill="#F8F9FA"/>
<g clip-path="url(#clip0_645_2708)">
<g clip-path="url(#clip1_645_2708)">
<g clip-path="url(#clip2_645_2708)">
<g clip-path="url(#clip3_645_2708)">
<mask id="mask0_645_2708" style="mask-type:luminance" maskUnits="userSpaceOnUse" x="10" y="8" width="19" height="19">
<path d="M10.1587 8.89746H28.1587V26.8975H10.1587V8.89746Z" fill="white"/>
</mask>
<g mask="url(#mask0_645_2708)">
<path d="M19.5157 24.7825L21.5657 20.2855L26.3237 18.8915L22.6607 15.5615L22.7987 10.6255L18.4857 13.0635L13.8127 11.4075L14.8097 16.2445L11.7837 20.1575L16.7137 20.7085L19.5157 24.7825ZM23.7247 22.4175L26.7247 25.4045L23.7247 22.4175Z" fill="#11615C"/>
</g>
</g>
</g>
</g>
</g>
<path d="M30.9708 23V12.9773H34.9251C35.6852 12.9773 36.3329 13.1225 36.8679 13.4128C37.403 13.6999 37.8108 14.0996 38.0914 14.6118C38.3753 15.1208 38.5172 15.7081 38.5172 16.3736C38.5172 17.0392 38.3736 17.6265 38.0865 18.1355C37.7994 18.6444 37.3834 19.0408 36.8386 19.3247C36.297 19.6085 35.6412 19.7504 34.8712 19.7504H32.3509V18.0523H34.5286C34.9365 18.0523 35.2725 17.9821 35.5368 17.8418C35.8043 17.6983 36.0033 17.5009 36.1338 17.2497C36.2676 16.9952 36.3345 16.7032 36.3345 16.3736C36.3345 16.0409 36.2676 15.7505 36.1338 15.5025C36.0033 15.2513 35.8043 15.0572 35.5368 14.9202C35.2693 14.7799 34.9299 14.7097 34.5189 14.7097H33.0898V23H30.9708ZM39.8544 23V15.483H41.8756V16.7945H41.9539C42.091 16.328 42.321 15.9756 42.644 15.7374C42.967 15.496 43.3389 15.3753 43.7598 15.3753C43.8642 15.3753 43.9767 15.3818 44.0975 15.3949C44.2182 15.4079 44.3242 15.4259 44.4156 15.4487V17.2986C44.3177 17.2692 44.1823 17.2431 44.0094 17.2203C43.8365 17.1975 43.6782 17.186 43.5347 17.186C43.228 17.186 42.9539 17.2529 42.7125 17.3867C42.4743 17.5172 42.2851 17.6999 42.1448 17.9348C42.0078 18.1697 41.9392 18.4405 41.9392 18.7472V23H39.8544ZM48.5399 23.1468C47.7797 23.1468 47.1223 22.9853 46.5677 22.6623C46.0163 22.3361 45.5905 21.8826 45.2904 21.3018C44.9902 20.7178 44.8401 20.0408 44.8401 19.2708C44.8401 18.4943 44.9902 17.8157 45.2904 17.235C45.5905 16.651 46.0163 16.1975 46.5677 15.8745C47.1223 15.5482 47.7797 15.3851 48.5399 15.3851C49.3001 15.3851 49.9559 15.5482 50.5073 15.8745C51.0619 16.1975 51.4893 16.651 51.7895 17.235C52.0896 17.8157 52.2397 18.4943 52.2397 19.2708C52.2397 20.0408 52.0896 20.7178 51.7895 21.3018C51.4893 21.8826 51.0619 22.3361 50.5073 22.6623C49.9559 22.9853 49.3001 23.1468 48.5399 23.1468ZM48.5497 21.5318C48.8955 21.5318 49.1843 21.4339 49.4159 21.2382C49.6476 21.0392 49.8221 20.7684 49.9396 20.4258C50.0603 20.0832 50.1206 19.6933 50.1206 19.2562C50.1206 18.819 50.0603 18.4291 49.9396 18.0865C49.8221 17.7439 49.6476 17.4731 49.4159 17.2741C49.1843 17.0751 48.8955 16.9756 48.5497 16.9756C48.2006 16.9756 47.907 17.0751 47.6688 17.2741C47.4339 17.4731 47.2561 17.7439 47.1354 18.0865C47.0179 18.4291 46.9592 18.819 46.9592 19.2562C46.9592 19.6933 47.0179 20.0832 47.1354 20.4258C47.2561 20.7684 47.4339 21.0392 47.6688 21.2382C47.907 21.4339 48.2006 21.5318 48.5497 21.5318ZM56.3653 23.1223C55.7943 23.1223 55.2772 22.9755 54.8139 22.6819C54.3539 22.385 53.9885 21.9494 53.7177 21.3752C53.4501 20.7977 53.3164 20.0898 53.3164 19.2513C53.3164 18.3899 53.455 17.6738 53.7323 17.1028C54.0097 16.5286 54.3783 16.0996 54.8384 15.8157C55.3017 15.5286 55.809 15.3851 56.3604 15.3851C56.7813 15.3851 57.132 15.4569 57.4126 15.6004C57.6964 15.7407 57.9248 15.9169 58.0977 16.129C58.2739 16.3378 58.4077 16.5433 58.499 16.7456H58.5626V12.9773H60.6425V23H58.5871V21.7961H58.499C58.4011 22.0049 58.2625 22.2121 58.083 22.4176C57.9069 22.6199 57.6768 22.7879 57.393 22.9217C57.1124 23.0555 56.7698 23.1223 56.3653 23.1223ZM57.0259 21.4633C57.362 21.4633 57.6458 21.372 57.8775 21.1893C58.1124 21.0033 58.2918 20.7439 58.4158 20.4111C58.5431 20.0783 58.6067 19.6885 58.6067 19.2415C58.6067 18.7945 58.5447 18.4062 58.4207 18.0767C58.2967 17.7472 58.1173 17.4927 57.8824 17.3133C57.6475 17.1338 57.362 17.0441 57.0259 17.0441C56.6834 17.0441 56.3946 17.1371 56.1597 17.3231C55.9248 17.509 55.747 17.7668 55.6263 18.0963C55.5056 18.4258 55.4452 18.8076 55.4452 19.2415C55.4452 19.6787 55.5056 20.0653 55.6263 20.4013C55.7503 20.7341 55.9281 20.9951 56.1597 21.1844C56.3946 21.3703 56.6834 21.4633 57.0259 21.4633ZM67.1771 19.7994V15.483H69.2619V23H67.2603V21.6346H67.182C67.0124 22.0751 66.7302 22.429 66.3354 22.6966C65.9439 22.9641 65.4659 23.0979 64.9015 23.0979C64.399 23.0979 63.9569 22.9837 63.5752 22.7553C63.1935 22.5269 62.895 22.2023 62.6796 21.7814C62.4676 21.3605 62.3599 20.8565 62.3566 20.2692V15.483H64.4414V19.8973C64.4447 20.341 64.5638 20.6917 64.7987 20.9495C65.0336 21.2072 65.3484 21.3361 65.7432 21.3361C65.9944 21.3361 66.2294 21.279 66.4479 21.1648C66.6665 21.0473 66.8427 20.8744 66.9765 20.646C67.1135 20.4176 67.1804 20.1354 67.1771 19.7994ZM74.3259 23.1468C73.5559 23.1468 72.8936 22.9837 72.339 22.6574C71.7876 22.3279 71.3635 21.8711 71.0666 21.2871C70.7729 20.7031 70.6261 20.031 70.6261 19.2708C70.6261 18.5009 70.7746 17.8255 71.0715 17.2448C71.3716 16.6608 71.7974 16.2056 72.3488 15.8794C72.9002 15.5498 73.5559 15.3851 74.3161 15.3851C74.9719 15.3851 75.5461 15.5042 76.0388 15.7423C76.5314 15.9805 76.9213 16.3149 77.2084 16.7456C77.4955 17.1762 77.6538 17.682 77.6831 18.2627H75.7158C75.6603 17.8875 75.5135 17.5857 75.2753 17.3573C75.0404 17.1257 74.7321 17.0099 74.3504 17.0099C74.0274 17.0099 73.7452 17.0979 73.5037 17.2741C73.2656 17.447 73.0796 17.6999 72.9458 18.0327C72.8121 18.3655 72.7452 18.7684 72.7452 19.2415C72.7452 19.7211 72.8104 20.1289 72.9409 20.465C73.0747 20.801 73.2623 21.0571 73.5037 21.2333C73.7452 21.4095 74.0274 21.4976 74.3504 21.4976C74.5886 21.4976 74.8023 21.4486 74.9915 21.3508C75.184 21.2529 75.3422 21.111 75.4662 20.925C75.5934 20.7358 75.6766 20.509 75.7158 20.2447H77.6831C77.6505 20.8189 77.4939 21.3247 77.2133 21.7618C76.936 22.1958 76.5526 22.5351 76.0633 22.7798C75.5739 23.0245 74.9948 23.1468 74.3259 23.1468ZM83.0163 15.483V17.049H78.4894V15.483H83.0163ZM79.5171 13.682H81.6019V20.6901C81.6019 20.8826 81.6313 21.0326 81.69 21.1403C81.7488 21.2447 81.8303 21.3181 81.9347 21.3605C82.0424 21.403 82.1664 21.4242 82.3067 21.4242C82.4045 21.4242 82.5024 21.416 82.6003 21.3997C82.6982 21.3801 82.7732 21.3654 82.8254 21.3556L83.1533 22.907C83.0489 22.9396 82.9021 22.9772 82.7129 23.0196C82.5236 23.0653 82.2936 23.093 82.0228 23.1028C81.5204 23.1223 81.0799 23.0555 80.7015 22.9021C80.3263 22.7488 80.0343 22.5106 79.8254 22.1876C79.6166 21.8646 79.5139 21.4568 79.5171 20.9641V13.682ZM87.6031 23V12.9773H89.7222V17.1126H94.0239V12.9773H96.1381V23H94.0239V18.8598H89.7222V23H87.6031ZM97.846 23V15.483H99.9309V23H97.846ZM98.8933 14.514C98.5834 14.514 98.3175 14.4112 98.0956 14.2056C97.877 13.9968 97.7677 13.7472 97.7677 13.4569C97.7677 13.1698 97.877 12.9234 98.0956 12.7179C98.3175 12.5091 98.5834 12.4047 98.8933 12.4047C99.2033 12.4047 99.4676 12.5091 99.6862 12.7179C99.908 12.9234 100.019 13.1698 100.019 13.4569C100.019 13.7472 99.908 13.9968 99.6862 14.2056C99.4676 14.4112 99.2033 14.514 98.8933 14.514ZM104.987 25.9755C104.312 25.9755 103.733 25.8825 103.25 25.6965C102.771 25.5138 102.389 25.2642 102.105 24.9478C101.821 24.6313 101.637 24.2757 101.552 23.8809L103.48 23.6215C103.539 23.7716 103.632 23.9119 103.759 24.0424C103.886 24.1729 104.054 24.2773 104.263 24.3556C104.475 24.4372 104.733 24.478 105.036 24.478C105.49 24.478 105.863 24.367 106.157 24.1452C106.454 23.9266 106.602 23.5595 106.602 23.044V21.6689H106.514C106.423 21.8777 106.286 22.0751 106.103 22.261C105.921 22.447 105.686 22.5987 105.399 22.7162C105.111 22.8336 104.769 22.8923 104.371 22.8923C103.806 22.8923 103.293 22.7618 102.829 22.5008C102.369 22.2366 102.002 21.8336 101.728 21.292C101.457 20.7472 101.322 20.0588 101.322 19.2268C101.322 18.3753 101.461 17.664 101.738 17.0931C102.015 16.5221 102.384 16.0947 102.844 15.8108C103.307 15.527 103.815 15.3851 104.366 15.3851C104.787 15.3851 105.139 15.4569 105.423 15.6004C105.707 15.7407 105.935 15.9169 106.108 16.129C106.284 16.3378 106.42 16.5433 106.514 16.7456H106.593V15.483H108.663V23.0734C108.663 23.7129 108.506 24.2479 108.193 24.6786C107.88 25.1093 107.446 25.4323 106.891 25.6476C106.34 25.8662 105.705 25.9755 104.987 25.9755ZM105.032 21.3263C105.368 21.3263 105.651 21.2431 105.883 21.0767C106.118 20.907 106.297 20.6656 106.421 20.3524C106.549 20.0359 106.612 19.6575 106.612 19.217C106.612 18.7766 106.55 18.3948 106.426 18.0718C106.302 17.7456 106.123 17.4927 105.888 17.3133C105.653 17.1338 105.368 17.0441 105.032 17.0441C104.689 17.0441 104.4 17.1371 104.165 17.3231C103.93 17.5058 103.753 17.7603 103.632 18.0865C103.511 18.4128 103.451 18.7896 103.451 19.217C103.451 19.6509 103.511 20.0261 103.632 20.3426C103.756 20.6558 103.934 20.8989 104.165 21.0718C104.4 21.2415 104.689 21.3263 105.032 21.3263ZM112.407 18.6542V23H110.322V12.9773H112.348V16.8092H112.436C112.606 16.3655 112.88 16.018 113.258 15.7668C113.637 15.5123 114.111 15.3851 114.682 15.3851C115.204 15.3851 115.659 15.4993 116.048 15.7276C116.439 15.9528 116.743 16.2774 116.958 16.7015C117.177 17.1224 117.284 17.6265 117.281 18.2138V23H115.196V18.5857C115.199 18.1224 115.082 17.7619 114.844 17.5041C114.609 17.2464 114.279 17.1175 113.855 17.1175C113.571 17.1175 113.32 17.1779 113.102 17.2986C112.886 17.4193 112.717 17.5955 112.593 17.8271C112.472 18.0555 112.41 18.3312 112.407 18.6542ZM121.006 12.9773V23H118.922V12.9773H121.006ZM122.677 23V15.483H124.761V23H122.677ZM123.724 14.514C123.414 14.514 123.148 14.4112 122.926 14.2056C122.708 13.9968 122.598 13.7472 122.598 13.4569C122.598 13.1698 122.708 12.9234 122.926 12.7179C123.148 12.5091 123.414 12.4047 123.724 12.4047C124.034 12.4047 124.298 12.5091 124.517 12.7179C124.738 12.9234 124.849 13.1698 124.849 13.4569C124.849 13.7472 124.738 13.9968 124.517 14.2056C124.298 14.4112 124.034 14.514 123.724 14.514ZM129.818 25.9755C129.143 25.9755 128.563 25.8825 128.081 25.6965C127.601 25.5138 127.219 25.2642 126.935 24.9478C126.652 24.6313 126.467 24.2757 126.382 23.8809L128.311 23.6215C128.369 23.7716 128.462 23.9119 128.59 24.0424C128.717 24.1729 128.885 24.2773 129.094 24.3556C129.306 24.4372 129.563 24.478 129.867 24.478C130.32 24.478 130.694 24.367 130.988 24.1452C131.285 23.9266 131.433 23.5595 131.433 23.044V21.6689H131.345C131.254 21.8777 131.116 22.0751 130.934 22.261C130.751 22.447 130.516 22.5987 130.229 22.7162C129.942 22.8336 129.599 22.8923 129.201 22.8923C128.637 22.8923 128.123 22.7618 127.66 22.5008C127.2 22.2366 126.833 21.8336 126.559 21.292C126.288 20.7472 126.152 20.0588 126.152 19.2268C126.152 18.3753 126.291 17.664 126.568 17.0931C126.846 16.5221 127.214 16.0947 127.674 15.8108C128.138 15.527 128.645 15.3851 129.196 15.3851C129.617 15.3851 129.97 15.4569 130.254 15.6004C130.537 15.7407 130.766 15.9169 130.939 16.129C131.115 16.3378 131.25 16.5433 131.345 16.7456H131.423V15.483H133.493V23.0734C133.493 23.7129 133.337 24.2479 133.023 24.6786C132.71 25.1093 132.276 25.4323 131.722 25.6476C131.17 25.8662 130.536 25.9755 129.818 25.9755ZM129.862 21.3263C130.198 21.3263 130.482 21.2431 130.714 21.0767C130.948 20.907 131.128 20.6656 131.252 20.3524C131.379 20.0359 131.443 19.6575 131.443 19.217C131.443 18.7766 131.381 18.3948 131.257 18.0718C131.133 17.7456 130.953 17.4927 130.718 17.3133C130.484 17.1338 130.198 17.0441 129.862 17.0441C129.519 17.0441 129.231 17.1371 128.996 17.3231C128.761 17.5058 128.583 17.7603 128.462 18.0865C128.342 18.4128 128.281 18.7896 128.281 19.217C128.281 19.6509 128.342 20.0261 128.462 20.3426C128.586 20.6558 128.764 20.8989 128.996 21.0718C129.231 21.2415 129.519 21.3263 129.862 21.3263ZM137.237 18.6542V23H135.152V12.9773H137.178V16.8092H137.266C137.436 16.3655 137.71 16.018 138.089 15.7668C138.467 15.5123 138.942 15.3851 139.513 15.3851C140.035 15.3851 140.49 15.4993 140.878 15.7276C141.27 15.9528 141.573 16.2774 141.788 16.7015C142.007 17.1224 142.115 17.6265 142.111 18.2138V23H140.027V18.5857C140.03 18.1224 139.912 17.7619 139.674 17.5041C139.439 17.2464 139.11 17.1175 138.686 17.1175C138.402 17.1175 138.151 17.1779 137.932 17.2986C137.717 17.4193 137.547 17.5955 137.423 17.8271C137.302 18.0555 137.24 18.3312 137.237 18.6542ZM147.75 15.483V17.049H143.224V15.483H147.75ZM144.251 13.682H146.336V20.6901C146.336 20.8826 146.365 21.0326 146.424 21.1403C146.483 21.2447 146.565 21.3181 146.669 21.3605C146.777 21.403 146.901 21.4242 147.041 21.4242C147.139 21.4242 147.237 21.416 147.334 21.3997C147.432 21.3801 147.507 21.3654 147.56 21.3556L147.887 22.907C147.783 22.9396 147.636 22.9772 147.447 23.0196C147.258 23.0653 147.028 23.093 146.757 23.1028C146.255 23.1223 145.814 23.0555 145.436 22.9021C145.06 22.7488 144.768 22.5106 144.56 22.1876C144.351 21.8646 144.248 21.4568 144.251 20.9641V13.682ZM155.269 17.6265L153.36 17.7439C153.327 17.5808 153.257 17.434 153.15 17.3035C153.042 17.1697 152.9 17.0637 152.724 16.9854C152.551 16.9038 152.344 16.863 152.102 16.863C151.779 16.863 151.507 16.9316 151.285 17.0686C151.063 17.2023 150.952 17.3818 150.952 17.6069C150.952 17.7864 151.024 17.9381 151.168 18.062C151.311 18.186 151.558 18.2855 151.907 18.3606L153.267 18.6346C153.998 18.7847 154.543 19.0261 154.902 19.3589C155.261 19.6917 155.44 20.1289 155.44 20.6705C155.44 21.1632 155.295 21.5954 155.004 21.9674C154.717 22.3393 154.323 22.6297 153.82 22.8385C153.321 23.044 152.745 23.1468 152.093 23.1468C151.097 23.1468 150.305 22.9396 149.714 22.5253C149.127 22.1077 148.783 21.54 148.682 20.8222L150.732 20.7145C150.794 21.018 150.944 21.2496 151.182 21.4095C151.42 21.5661 151.726 21.6444 152.097 21.6444C152.463 21.6444 152.757 21.5742 152.978 21.4339C153.204 21.2904 153.318 21.1061 153.321 20.8809C153.318 20.6917 153.238 20.5367 153.081 20.416C152.925 20.292 152.683 20.1974 152.357 20.1322L151.055 19.8728C150.321 19.726 149.775 19.4715 149.416 19.1093C149.06 18.7472 148.882 18.2855 148.882 17.7244C148.882 17.2415 149.013 16.8255 149.274 16.4764C149.538 16.1273 149.908 15.8582 150.385 15.6689C150.864 15.4797 151.425 15.3851 152.068 15.3851C153.018 15.3851 153.765 15.5857 154.31 15.987C154.858 16.3883 155.177 16.9348 155.269 17.6265Z" fill="#333333"/>
<rect x="0.661621" y="1.39746" width="165" height="33" rx="16.5" stroke="#E6E9EE"/>
<defs>
<clipPath id="clip0_645_2708">
<rect width="18" height="18" fill="white" transform="translate(10.0103 8.5)"/>
</clipPath>
<clipPath id="clip1_645_2708">
<rect width="18" height="18" fill="white" transform="translate(10.1587 8.89746)"/>
</clipPath>
<clipPath id="clip2_645_2708">
<rect width="18" height="18" fill="white" transform="translate(10.1587 8.89746)"/>
</clipPath>
<clipPath id="clip3_645_2708">
<rect width="18" height="18" fill="white" transform="translate(10.1587 8.89746)"/>
</clipPath>
</defs>
</svg>
