<svg width="54" height="55" viewBox="0 0 54 55" fill="none" xmlns="http://www.w3.org/2000/svg">
<rect y="0.5" width="54" height="54" rx="10" fill="#C7F8ED"/>
<path d="M20.75 26.25V20C20.75 16.25 23.25 13.75 27 13.75C30.75 13.75 33.25 16.25 33.25 20V26.25M27 31.25V36.25M27 41.25C31.8325 41.25 35.75 37.3325 35.75 32.5C35.75 27.6675 31.8325 23.75 27 23.75C22.1675 23.75 18.25 27.6675 18.25 32.5C18.25 37.3325 22.1675 41.25 27 41.25ZM27 32.5C27.6904 32.5 28.25 31.9404 28.25 31.25C28.25 30.5596 27.6904 30 27 30C26.3096 30 25.75 30.5596 25.75 31.25C25.75 31.9404 26.3096 32.5 27 32.5Z" stroke="black" stroke-width="1.5"/>
</svg>
