<svg width="70" height="73" viewBox="0 0 70 73" fill="none" xmlns="http://www.w3.org/2000/svg">
<rect y="0.805664" width="70" height="70" rx="10" fill="#A9D6D3"/>
<g filter="url(#filter0_f_645_2542)">
<rect x="22" y="35.8057" width="27" height="27" rx="10" fill="#FFC350" fill-opacity="0.25"/>
</g>
<g clip-path="url(#clip0_645_2542)">
<path d="M34.4352 15.9349L16.5235 24.5819C16.2989 24.6903 16.1562 24.9177 16.1562 25.1671V46.4442C16.1562 46.6936 16.299 46.921 16.5235 47.0294L34.4352 55.6764C34.7921 55.8488 35.2082 55.8488 35.5652 55.6764L53.4768 47.0294C53.7014 46.921 53.8441 46.6936 53.8441 46.4442V25.1671C53.8441 24.9177 53.7013 24.6903 53.4768 24.5819L35.5652 15.9349C35.2082 15.7626 34.7921 15.7626 34.4352 15.9349Z" fill="#FFE17D"/>
<path d="M16.2643 24.8115C16.196 24.9155 16.1562 25.0379 16.1562 25.1672V46.4444C16.1562 46.6938 16.299 46.9211 16.5235 47.0296L34.4352 55.6765C34.6136 55.7627 34.8069 55.8057 35.0002 55.8057V33.8564L16.2643 24.8115Z" fill="#FFC350"/>
<path d="M53.7359 24.8115C53.8041 24.9155 53.8439 25.0379 53.8439 25.1672V46.4444C53.8439 46.6938 53.7012 46.9211 53.4766 47.0296L35.565 55.6765C35.3866 55.7627 35.1933 55.8058 35 55.8058V33.8564L53.7359 24.8115Z" fill="#FFD164"/>
<path d="M21.5162 45.3103C21.4217 45.3103 21.3252 45.2894 21.2345 45.2457L18.4691 43.9106C18.1455 43.7545 18.0103 43.3661 18.1664 43.0432C18.3219 42.7202 18.7115 42.5857 19.0339 42.7405L21.7993 44.0757C22.1228 44.2317 22.258 44.6201 22.1019 44.9431C21.9903 45.1752 21.758 45.3103 21.5162 45.3103Z" fill="#FFE17D"/>
<path d="M24.0615 43.6536C23.967 43.6536 23.8705 43.6326 23.7798 43.5889L18.4729 41.0272C18.1499 40.8711 18.0141 40.4827 18.1702 40.1597C18.3257 39.8374 18.7159 39.7022 19.0377 39.8571L24.3445 42.4188C24.6674 42.5749 24.8032 42.9633 24.6471 43.2862C24.5356 43.5183 24.3033 43.6536 24.0615 43.6536Z" fill="#FFF6D8"/>
<path d="M47.3864 27.8663L28.5847 18.7832L23.6284 21.1855L42.4723 30.2827L47.3864 27.8663Z" fill="#F29173"/>
<path d="M42.4727 30.2825V37.33C42.4727 37.5695 42.723 37.7267 42.9388 37.6225L47.0195 35.6526C47.2441 35.5442 47.3867 35.3168 47.3867 35.0675V27.8662L42.4727 30.2825Z" fill="#E6646E"/>
</g>
<defs>
<filter id="filter0_f_645_2542" x="12" y="25.8057" width="47" height="47" filterUnits="userSpaceOnUse" color-interpolation-filters="sRGB">
<feFlood flood-opacity="0" result="BackgroundImageFix"/>
<feBlend mode="normal" in="SourceGraphic" in2="BackgroundImageFix" result="shape"/>
<feGaussianBlur stdDeviation="5" result="effect1_foregroundBlur_645_2542"/>
</filter>
<clipPath id="clip0_645_2542">
<rect width="40" height="40" fill="white" transform="translate(15 15.8057)"/>
</clipPath>
</defs>
</svg>
