<svg width="54" height="54" viewBox="0 0 54 54" fill="none" xmlns="http://www.w3.org/2000/svg">
<rect width="54" height="54" rx="10" fill="#C7F8ED"/>
<path fill-rule="evenodd" clip-rule="evenodd" d="M16.2002 21.0001V33.0001C16.2002 34.3256 17.2747 35.4001 18.6002 35.4001H35.4002C36.7257 35.4001 37.8002 34.3256 37.8002 33.0001V21.0001C37.8002 19.6746 36.7257 18.6001 35.4002 18.6001H18.6002C17.2747 18.6001 16.2002 19.6746 16.2002 21.0001Z" stroke="black" stroke-width="1.5" stroke-linecap="round" stroke-linejoin="round"/>
<path d="M30.6001 24.6001H34.2001" stroke="black" stroke-width="1.5" stroke-linecap="round"/>
<path d="M30.6001 28.2002H34.2001" stroke="black" stroke-width="1.5" stroke-linecap="round"/>
<path fill-rule="evenodd" clip-rule="evenodd" d="M25.8 24.6002C25.8 25.9257 24.7255 27.0002 23.4 27.0002C22.0745 27.0002 21 25.9257 21 24.6002C21 23.2747 22.0745 22.2002 23.4 22.2002C24.0365 22.2002 24.6469 22.453 25.097 22.9031C25.5472 23.3532 25.8 23.9637 25.8 24.6002Z" stroke="black" stroke-width="1.5" stroke-linecap="round" stroke-linejoin="round"/>
<path d="M18.6001 31.7998C21.9397 28.0354 25.8625 29.2186 28.2001 31.7998" stroke="black" stroke-width="1.5" stroke-linecap="round"/>
</svg>
