<svg width="70" height="71" viewBox="0 0 70 71" fill="none" xmlns="http://www.w3.org/2000/svg">
<rect y="0.805664" width="70" height="70" rx="10" fill="#A9D6D3"/>
<path d="M44.4402 22.5C45.9183 22.5 47.1166 23.7042 47.1166 25.1897V41.3276C47.1166 42.813 45.9183 44.0172 44.4402 44.0172H17.6764C16.1983 44.0172 15 42.813 15 41.3276V25.1897C15 23.7042 16.1983 22.5 17.6764 22.5H44.4402Z" fill="url(#paint0_linear_645_2575)"/>
<path d="M24.4813 37.7412H19.3959C18.9389 37.7412 18.5684 38.1117 18.5684 38.5688C18.5684 39.0259 18.9389 39.3964 19.3959 39.3964H24.4813C24.9384 39.3964 25.3089 39.0259 25.3089 38.5688C25.3089 38.1117 24.9384 37.7412 24.4813 37.7412Z" fill="url(#paint1_linear_645_2575)"/>
<path d="M32.1141 37.7412H27.0288C26.5717 37.7412 26.2012 38.1117 26.2012 38.5688C26.2012 39.0259 26.5717 39.3964 27.0288 39.3964H32.1141C32.5712 39.3964 32.9417 39.0259 32.9417 38.5688C32.9417 38.1117 32.5712 37.7412 32.1141 37.7412Z" fill="url(#paint2_linear_645_2575)"/>
<path d="M20.3526 29.6726C21.338 29.6726 22.1369 28.8698 22.1369 27.8795C22.1369 26.8892 21.338 26.0864 20.3526 26.0864C19.3672 26.0864 18.5684 26.8892 18.5684 27.8795C18.5684 28.8698 19.3672 29.6726 20.3526 29.6726Z" fill="#F15314"/>
<path d="M23.0294 29.6726C24.0148 29.6726 24.8136 28.8698 24.8136 27.8795C24.8136 26.8892 24.0148 26.0864 23.0294 26.0864C22.044 26.0864 21.2451 26.8892 21.2451 27.8795C21.2451 28.8698 22.044 29.6726 23.0294 29.6726Z" fill="#F59D00"/>
<path d="M43.3226 26.3083C43.3226 25.4544 42.5788 24.7622 41.6614 24.7622C41.3414 24.7622 41.0282 24.8482 40.7595 25.0099L35.0188 28.4637C34.2483 28.9273 34.0275 29.8844 34.5256 30.6015C34.6533 30.7852 34.8214 30.9417 35.0188 31.0605L40.7595 34.5143C41.53 34.9779 42.5584 34.7724 43.0565 34.0553C43.2302 33.8052 43.3226 33.5137 43.3226 33.2165L43.3228 32.9719L52.598 32.9722C53.5155 32.9722 54.2593 32.28 54.2593 31.4261V28.0981C54.2593 27.2442 53.5155 26.552 52.5981 26.552L43.3228 26.5518L43.3226 26.3083Z" fill="url(#paint3_linear_645_2575)"/>
<path d="M43 35.5C46.866 35.5 50 38.634 50 42.5C50 46.366 46.866 49.5 43 49.5C39.134 49.5 36 46.366 36 42.5C36 38.634 39.134 35.5 43 35.5Z" fill="url(#paint4_linear_645_2575)"/>
<path d="M43 35.5C46.866 35.5 50 38.634 50 42.5C50 46.366 46.866 49.5 43 49.5C39.134 49.5 36 46.366 36 42.5C36 38.634 39.134 35.5 43 35.5ZM40.4385 45.4262L40.4193 45.45L38.7888 47.0807C39.8079 48.018 41.1406 48.6197 42.6116 48.7103L42.6113 46.3697C41.7831 46.2875 41.0312 45.9455 40.4385 45.4262ZM43.3887 46.3697L43.3884 48.7103C44.9153 48.6163 46.2933 47.9715 47.3261 46.9722C47.302 46.9584 47.2792 46.9403 47.2582 46.9193L45.6686 45.3288C45.0606 45.9026 44.2677 46.2825 43.3887 46.3697ZM39.1301 42.8867L39.1111 42.8889L36.7897 42.8884C36.8747 44.2686 37.4097 45.5271 38.2497 46.519L39.8693 44.9001L39.9129 44.8653C39.4837 44.3061 39.2032 43.6268 39.1301 42.8867ZM46.1792 44.7402L47.8082 46.3693L47.8413 46.409C48.6289 45.4348 49.1284 44.2181 49.2103 42.8884L46.8889 42.8889L46.8699 42.8867C46.8022 43.5725 46.5563 44.206 46.1792 44.7402ZM43 39.3889C41.2818 39.3889 39.8889 40.7818 39.8889 42.5C39.8889 44.2182 41.2818 45.6111 43 45.6111C44.7182 45.6111 46.1111 44.2182 46.1111 42.5C46.1111 40.7818 44.7182 39.3889 43 39.3889ZM36.7897 42.1116L39.1111 42.1111L39.1301 42.1133C39.2032 41.3732 39.4837 40.6939 39.9129 40.1347L39.8693 40.0999L38.2497 38.481C37.4097 39.4729 36.8747 40.7314 36.7897 42.1116ZM47.6792 38.3985L46.0242 40.0548C46.4888 40.6287 46.7933 41.3376 46.8699 42.1133L46.8889 42.1111L49.2103 42.1116C49.1229 40.6929 48.5601 39.4027 47.6792 38.3985ZM38.7888 37.9193L40.4193 39.55C40.4271 39.5578 40.4345 39.5658 40.4415 39.574C41.0317 39.0541 41.7843 38.7119 42.6133 38.6301C42.6113 38.6242 42.6111 38.6177 42.6111 38.6111L42.6116 36.2897C41.1406 36.3803 39.8079 36.982 38.7888 37.9193ZM43.3884 36.2897L43.3889 38.6111L43.3867 38.6301C44.1767 38.7081 44.8974 39.0225 45.4768 39.5017L47.1314 37.8472C46.1229 36.9511 44.8212 36.3779 43.3884 36.2897Z" fill="url(#paint5_linear_645_2575)"/>
<defs>
<linearGradient id="paint0_linear_645_2575" x1="1620.83" y1="22.5" x2="1620.83" y2="2174.22" gradientUnits="userSpaceOnUse">
<stop stop-color="#EDEEF4"/>
<stop offset="1" stop-color="#D7D8E6"/>
</linearGradient>
<linearGradient id="paint1_linear_645_2575" x1="692.62" y1="120.5" x2="18.5684" y2="120.5" gradientUnits="userSpaceOnUse">
<stop stop-color="#C3C4D4"/>
<stop offset="1" stop-color="#AEAFC8"/>
</linearGradient>
<linearGradient id="paint2_linear_645_2575" x1="700.253" y1="120.5" x2="26.2012" y2="120.5" gradientUnits="userSpaceOnUse">
<stop stop-color="#C3C4D4"/>
<stop offset="1" stop-color="#AEAFC8"/>
</linearGradient>
<linearGradient id="paint3_linear_645_2575" x1="-945.741" y1="24.7622" x2="-945.741" y2="1024.76" gradientUnits="userSpaceOnUse">
<stop stop-color="#1DD47F"/>
<stop offset="1" stop-color="#0DA949"/>
</linearGradient>
<linearGradient id="paint4_linear_645_2575" x1="736" y1="35.5" x2="736" y2="1435.5" gradientUnits="userSpaceOnUse">
<stop stop-color="#7AA0FA"/>
<stop offset="1" stop-color="#4466F3"/>
</linearGradient>
<linearGradient id="paint5_linear_645_2575" x1="736" y1="35.5" x2="736" y2="1435.5" gradientUnits="userSpaceOnUse">
<stop stop-color="#2F6DC8"/>
<stop offset="1" stop-color="#153B97"/>
</linearGradient>
</defs>
</svg>
